# xmcd
# Track frame offsets:
# 183
# 15033
# 30688
# 45468
# 56188
# 71780
# 89648
# 102038
# 116733
# 128348
# 144320
#
# Disc length: 2127 seconds
# Revision: 0
# Processed by: cddbd v1.4PL0 Copyright (c) Steve Scherf et al.
# Submitted via: VisiTrax 2.9.5.180 - For more info visit www.synapsa.com
#
DISCID=8b084d0b
DTITLE=Marsha Britton - Hayride
DYEAR=2003
DGENRE=Country
TTITLE0=I can play our memory by heart
TTITLE1=Hallelujah hairdo
TTITLE2=He's gone crazy
TTITLE3=Two step your baby's blues away
TTITLE4=If you so much as touch me
TTITLE5=I couldn't care less
TTITLE6=Tired of blaming you
TTITLE7=He's just a man
TTITLE8=You really hit the spot
TTITLE9=Stone cold crazy
TTITLE10=Hayride
EXTD=411.03 Hawk Records
EXTT0=
EXTT1=
EXTT2=
EXTT3=
EXTT4=
EXTT5=
EXTT6=
EXTT7=
EXTT8=
EXTT9=
EXTT10=
PLAYORDER=
